<?xml version="1.0" encoding="utf-8"?>
<!-- Generator: Adobe Illustrator 22.0.0, SVG Export Plug-In . SVG Version: 6.00 Build 0)  -->
<svg version="1.1" id="Capa_1" xmlns="http://www.w3.org/2000/svg" xmlns:xlink="http://www.w3.org/1999/xlink" x="0px" y="0px"
	 viewBox="-49 141 512 512" style="enable-background:new -49 141 512 512;" xml:space="preserve">
<style type="text/css">
	.st0{fill:#2B2B2B;}
	<!-- .st1{fill:#B4171C;} -->
	.st1{fill:rgb(4, 80, 201);}
</style>
<circle class="st0" cx="323" cy="265" r="12"/>
<path class="st1" d="M410.7,261c-18.5,0-34.4,1.3-49.8-14.1l-19.9-19.9c-9-9-21.2-14.1-33.9-14.1h-55.8H251c-12.8,0-25,5.1-34,14.1
	l-0.3,0.3l-37.5,37.5c-7.8,7.8-12.2,18.4-12.2,29.4v12.6c0,22.8,18.1,46.3,40.6,49.6c2.5,0.4,5,0.6,7.4,0.6v3.2
	c-39.4,22.7-120.3,68.5-136.4,84.4C65.2,458.1,55,479.5,55,501c0,9.6,1.3,19.4,6.9,32.1L15,533c-13.3,0-24,10.7-24,24s10.7,24,24,24
	h199.8c11.9,0,20.1-12.8,14.4-23.2c-5.1-9.3-13.2-16.7-23-20.9c5.5-10.9,8.7-20,22.5-20H247v48c0,8.8,7.2,16,16,16h59.5
	c12.3,0,20.2-13.4,14-24c-7.4-12.6-20.4-21.5-35.6-23.4l3.6-28.5c19.2-11.8,33.4-31.4,37.3-54.1c5.5-31.8-8.1-60.5-30.8-77.6V341h48
	c17.6,0,39.4-12.3,48.5-27.4c3.8-6.4,19.3-29.4,19.3-36.6C426.7,268.6,420.1,261,410.7,261z M214.9,340.8
	c-19.6,0-31.9-16.6-31.9-33.6v-13c0-6.7,2.5-13.2,7.5-18.1l37.5-37.5c5-5,11.8-8.4,19-9.3V309C247,326.1,233.2,340.8,214.9,340.8z
	 M15,565c-4.4,0-8-3.6-8-8s3.6-8,8-8c57.9,0.1,43.6,0.1,56.6,0.1c5.9,7.8,6.9,9.1,16,15.9H15z M393.7,305.3
	c-6.5,10.8-22.1,19.7-34.7,19.7h-40.8c-10.4,0-19.2-6.7-22.5-16H279c2,10,8,18.6,16,24.4v47.9c23,17.4,36.1,37.3,31,67
	c-4.1,23.6-18.3,36.1-36.5,47.2c-3.8,30.8-5,40.1-6.5,52c16.1,2,30.7,2,39.5,17.5c-33.5,0-26.1,0-59.5,0c0-38.4,0-41.5,0-80h-16v16
	c-4.2,0-7.6,0-18.4,0c-4.9,0-9.5,1.3-13.9,3.2c0.8-21.7-7.1-43.6-23.2-59.7l-11.3,11.3c23.7,23.7,22.3,58.5,8.8,79.6l-4.8,9.5
	c12.4,5.4,24.4,8.8,30.6,20.1H135c-35.4,0-63.4-28.6-63.9-63.1c-0.3-19.1,8.3-38.9,25.9-52c17.6-13.1,115-69.4,134-80.4
	c0-4.4,0-11.2,0-15.4c18.6-6.6,32-24.2,32-45.1v-80h44.1c8.5,0,16.6,3.4,22.6,9.4l19.9,19.9C361,269.6,376,276,392,276.7
	c1.7,5.8,5.6,10.6,10.8,13.5L393.7,305.3z"/>
<g>
	<path class="st0" d="M410.7,261c-18.5,0-34.4,1.3-49.8-14.1l-19.9-19.9c-9-9-21.2-14.1-33.9-14.1H262l1,16h44.1
		c8.5,0,16.6,3.4,22.6,9.4l19.9,19.9C361,269.6,376,276,392,276.7c1.7,5.8,5.6,10.6,10.8,13.5l-9.1,15.1
		c-6.5,10.8-22.1,19.7-34.7,19.7h-40.8c-10.4,0-19.2-6.7-22.5-16H279c2,10,8,18.6,16,24.4v47.9c23,17.4,36.1,37.3,31,67
		c-4.1,23.6-18.3,36.1-36.5,47.2c-3.8,30.8-5,40.1-6.5,52c16.1,2,30.7,2,39.5,17.5c-33.5,0-26.1,0-59.5,0c0-38.4,0-41.5,0-80h-16v16
		c-4.2,0-7.6,0-18.4,0c-4.9,0-9.5,1.3-13.9,3.2c0.8-21.7-7.1-43.6-23.2-59.7l-11.3,11.3c23.7,23.7,22.3,58.5,8.8,79.6l-4.8,9.5
		c12.4,5.4,24.4,8.8,30.6,20.1H135c-35.4,0-63.4-28.6-63.9-63.1c-0.3-19.1,8.3-38.9,25.9-52c17.6-13.1,115-69.4,134-80.4
		c0-4.3,0-11.2,0-15.3c-1.3,0.3-3.6,0.9-7.7,1.9c-3,0.7-5.8,1.2-8.3,1.4v2.8c-39.4,22.7-120.3,68.5-136.4,84.4
		C65.2,458.1,55,479.5,55,501c0,9.6,1.3,19.4,6.9,32.1l-0.6,0c2.2,5.2,5.2,10.7,9.1,16c0.4,0,0.7,0,1.1,0c5.9,7.8,6.9,9.1,16,15.9
		h-1.3c12.9,9.6,27.1,14,35.9,16h92.7c11.9,0,20.1-12.8,14.4-23.2c-5.1-9.3-13.2-16.7-23-20.9c5.5-10.9,8.7-20,22.5-20H247v48
		c0,8.8,7.2,16,16,16h59.5c12.3,0,20.2-13.4,14-24c-7.4-12.6-20.4-21.5-35.6-23.4l3.6-28.5c19.2-11.8,33.4-31.4,37.3-54.1
		c5.5-31.8-8.1-60.5-30.8-77.6V341h48c17.6,0,39.4-12.3,48.5-27.4c3.8-6.4,19.3-29.4,19.3-36.6C426.7,268.6,420.1,261,410.7,261z"/>
</g>
</svg>
