<?xml version="1.0" encoding="utf-8"?>
<!-- Generator: Adobe Illustrator 22.0.0, SVG Export Plug-In . SVG Version: 6.00 Build 0)  -->
<svg version="1.1" id="Layer_1" xmlns="http://www.w3.org/2000/svg" xmlns:xlink="http://www.w3.org/1999/xlink" x="0px" y="0px"
	 viewBox="0 0 1000 1000" style="enable-background:new 0 0 1000 1000;" xml:space="preserve">
<style type="text/css">
	.st0{fill:#B42025;}
	.st1{fill:#2B2C2B;}
</style>
<path class="st0" d="M496.2,524.9c-77.7,0-140.9,63.2-140.9,140.9c0,77.7,63.2,140.9,140.9,140.9c77.7,0,140.9-63.2,140.9-140.9
	S573.9,524.9,496.2,524.9L496.2,524.9z M496.2,778.3c-62,0-112.5-50.5-112.5-112.5c0-62,50.5-112.5,112.5-112.5
	s112.5,50.5,112.5,112.5C608.7,727.8,558.2,778.3,496.2,778.3L496.2,778.3z M496.2,778.3"/>
<path class="st0" d="M534.4,607.5l-48.3,48.3c-5.5,5.5-5.5,14.5,0,20c2.8,2.8,6.4,4.2,10,4.2c3.6,0,7.3-1.4,10-4.2l48.3-48.2
	c5.5-5.5,5.5-14.5,0-20.1C548.9,601.9,540,601.9,534.4,607.5L534.4,607.5z M534.4,607.5"/>
<path class="st0" d="M480.6,211.8H365.3c-7.8,0-14.2,6.3-14.2,14.2c0,7.8,6.3,14.2,14.2,14.2h115.3c7.8,0,14.2-6.3,14.2-14.2
	C494.8,218.2,488.4,211.8,480.6,211.8L480.6,211.8z M480.6,211.8"/>
<path class="st0" d="M670.5,242.3h-52c-7.8,0-14.2,6.3-14.2,14.2c0,7.8,6.4,14.2,14.2,14.2h52c7.8,0,14.2-6.3,14.2-14.2
	C684.7,248.6,678.4,242.3,670.5,242.3L670.5,242.3z M670.5,242.3"/>
<path class="st1" d="M799.2,549l-155.5-90.8v-58.9h179.9c9.5,0,17.2-7.7,17.2-17.2v-73.7c0-9.5-7.7-17.2-17.2-17.2h-42.5
	c2.9-6.9,4.4-14.3,4.4-21.8v-66.3c0-31-25.2-56.2-56.2-56.2H263c-31,0-56.2,25.2-56.2,56.2v66.3c0,7.5,1.5,14.9,4.4,21.8h-42.5
	c-9.5,0-17.2,7.7-17.2,17.2v73.7c0,9.5,7.7,17.2,17.2,17.2h32.6h147.3v58.9L193.2,549c-38.8,22.6-62.8,64.6-62.8,109.5v203
	c0,9.5,7.7,17.2,17.2,17.2h697.4c9.5,0,17.2-7.7,17.2-17.2v-203C862.1,613.6,838,571.7,799.2,549z M241.2,203.1
	c0-12,9.8-21.8,21.8-21.8h466.4c12,0,21.8,9.8,21.8,21.8v66.3c0,12-9.8,21.8-21.8,21.8H263c-12,0-21.8-9.8-21.8-21.8V203.1z
	 M201.4,364.9h-15.4v-39.4h620.5v39.4H201.4z M609.4,399.3v53.5H383v-53.5H609.4z M164.7,658.5c0-32.7,17.6-63.3,45.8-79.8
	l156.6-91.5h258.2l156.6,91.5c28.3,16.5,45.8,47.1,45.8,79.8v129.1h-0.5v3V819v3h0.5v22.3H164.7V658.5z"/>
</svg>
