<?xml version="1.0" encoding="utf-8"?>
<!-- Generator: Adobe Illustrator 22.0.0, SVG Export Plug-In . SVG Version: 6.00 Build 0)  -->
<svg version="1.1" id="Layer_1" xmlns="http://www.w3.org/2000/svg" xmlns:xlink="http://www.w3.org/1999/xlink" x="0px" y="0px"
	 viewBox="0 0 1000 1000" style="enable-background:new 0 0 1000 1000;" xml:space="preserve">
<style type="text/css">
	.st0{stroke:#EF517E;stroke-width:6;stroke-miterlimit:10;}
	.st1{fill:none;}
	.st2{fill:#B42025;}
	.st3{fill:#2B2C2B;}
</style>
<rect x="53.9" y="161.6" class="st1" width="931.1" height="735.8"/>
<g>
	<path class="st2" d="M388.2,549.1l34.5-79.7l39.6,167.1c2.2,8.8,9,15,17.7,16.2l0.3,0.1c0.7,0.2,1.8,0.2,3.1,0.2
		c7.5,0,14.4-3.9,18.4-10.3l78.3-128.9h85c11.8,0,21.5-9.6,21.5-21.5c0-12-9.6-21.8-21.5-21.8h-96.9c-7.6,0-14.6,4-18.6,10.6
		l-57.5,94.3l-42.3-179.2c-2.1-9-9.8-15.6-19.2-16.4c-9-1.1-17.9,4.2-21.8,12.9L353.9,519H224.2h-32.9h-48.7h-35.9H56
		c-11.6,0-21.5,9.8-21.5,21.5c0,12,9.6,21.8,21.5,21.8h312.2C376.9,562.3,384.5,557.2,388.2,549.1z"/>
</g>
<g>
	<path class="st3" d="M823.5,195.1c-87.6-48.3-204-33.6-276.7,35l-3.5,3.3l-3.5-3.3c-73-68.6-189.4-83.3-276.9-35
		c-75.9,41.7-123,121.2-123,207.7c0,24.4,3.9,48.8,11.2,70.7l0.1,0.5c2.8,12,7.1,24.8,12.8,37.8l3.1,7.2h48.7l-1.5-2.7
		c-11.3-21-18-37.7-21.6-54.1c-6.3-19.2-9.5-39.2-9.5-59.4c0-70.5,38.5-135.6,100.4-169.9c38.4-21.1,84.3-28,129.4-19.4
		c45.2,8.6,85.5,31.8,113.5,65.6c4,4.6,10.1,7.3,16.8,7.3c0.1,0,0.1,0,0.2,0c6.6,0,12.6-2.7,16.4-7.3c28.1-33.7,68.4-57,113.5-65.6
		c45.2-8.6,91.2-1.6,129.4,19.7c61.9,34,100.4,99.1,100.4,169.9c0,20.4-3.4,40.7-10.3,62c-26.1,117.2-230.1,276.9-346.6,352.8
		l-2.8,1.8l-2.8-1.9c-62.5-41.5-121.6-85.9-171.1-128.4c-4-3.4-9-5-13.9-5c-6.2,0-12.4,2.6-16.7,7.6c-7.6,9.2-6.5,22.5,2.6,30.4
		c87.2,74.9,173.4,130.5,189.8,140.9l0.4,0.3c3.4,2.2,7.3,3.3,11.6,3.3c4.4,0,8.1-1.1,11.6-3.3c14-8.8,342.3-217.5,379.8-386.9
		l0.1-0.5c8-23.8,12-48.4,12-73.3C946.6,316.4,899.4,236.8,823.5,195.1z"/>
</g>
</svg>
