<?xml version="1.0" encoding="utf-8"?>
<!-- Generator: Adobe Illustrator 22.0.0, SVG Export Plug-In . SVG Version: 6.00 Build 0)  -->
<svg version="1.1" id="Capa_1" xmlns="http://www.w3.org/2000/svg" xmlns:xlink="http://www.w3.org/1999/xlink" x="0px" y="0px"
	 viewBox="-49 141 512 512" style="enable-background:new -49 141 512 512;" xml:space="preserve">
<style type="text/css">
	.st0{fill:#2B2B2B;}
	<!-- .st1{fill:#B4171C;} -->
	.st1{fill:rgb(4, 80, 201);}
</style>
<path class="st0" d="M270.2,496.3v-198c15-1.9,29-8.7,39.8-19.5c12.9-12.9,20-30.1,20-48.4c0-37.7-30.7-68.4-68.4-68.4
	c-18.3,0-35.4,7.1-48.4,20c-1.4,1.4-2.8,2.9-4.1,4.5c-12.9-15.4-32.2-24.5-52.5-24.5c-18.3,0-35.4,7.1-48.4,20
	c-12.9,12.9-20,30.1-20,48.4c0,17.1,6.4,33.5,17.9,46.1c9,9.9,20.5,16.8,33.4,20.1l0,199.7c-13.5,2.5-25.7,9-35.5,18.8
	c-12.9,12.9-20,30.1-20,48.4c0,18.3,7.1,35.4,20,48.4c12.9,12.9,30.1,20,48.4,20c18.3,0,35.4-7.1,48.4-20c1.4-1.4,2.8-2.9,4.1-4.5
	c12.9,15.4,32.2,24.5,52.5,24.5c18.3,0,35.4-7.1,48.4-20c12.9-12.9,20-30.1,20-48.4c0-18-7-35-19.6-47.9
	C296.3,505.6,283.9,498.9,270.2,496.3z M289.2,595.4c-8.5,8.5-19.8,13.2-31.9,13.2c-18.3,0-34.7-10.9-41.7-27.9
	c-1.8-4.4-6-7.2-10.8-7.2c-3.1,0-6,1.2-8.2,3.4c-1.1,1.1-1.9,2.4-2.5,3.8c-2.3,5.5-5.6,10.5-9.8,14.7c-8.5,8.5-19.8,13.2-31.9,13.2
	c-12,0-23.4-4.7-31.9-13.2c-8.5-8.5-13.2-19.8-13.2-31.9c0-12,4.7-23.4,13.2-31.9c8.3-8.3,19.3-13,30.9-13.2
	c6.3-0.1,11.4-5.4,11.4-11.7l0-219.9c0-6-4.5-11-10.6-11.6c-23.2-2.2-40.7-21.5-40.7-44.9c0-12,4.7-23.4,13.2-31.9
	c8.5-8.5,19.8-13.2,31.9-13.2c18.3,0,34.7,11,41.7,27.9c1.8,4.4,6,7.2,10.8,7.2c4.7,0,9-2.8,10.8-7.2c2.3-5.5,5.6-10.5,9.8-14.7
	c8.5-8.5,19.8-13.2,31.9-13.2c12,0,23.3,4.7,31.9,13.2c8.5,8.5,13.2,19.8,13.2,31.9c0,12-4.7,23.4-13.2,31.9
	c-8.5,8.5-19.8,13.2-31.9,13.2c-0.8,0-1.6,0-2.5-0.1c-0.2,0-0.4,0-0.6,0c-3,0-5.8,1.1-8,3.2c-2.3,2.2-3.6,5.3-3.6,8.5l0,219.7
	c0,6.3,5.1,11.5,11.4,11.7c24.3,0.5,44.1,20.7,44.1,45.1C302.4,575.6,297.7,586.9,289.2,595.4z M200.1,578
	C200,578,200,578,200.1,578C200,578,200,578,200.1,578z"/>
<path class="st1" d="M212.7,456.1l-43.4,0v17.3l43.4,0c4.8,0,8.7-3.9,8.7-8.7C221.4,459.9,217.5,456.1,212.7,456.1z"/>
<path class="st1" d="M212.7,421.8l-43.4,0v17.3l43.4,0c4.8,0,8.7-3.9,8.7-8.7C221.4,425.7,217.5,421.8,212.7,421.8z"/>
<path class="st1" d="M234.1,388.1l-64.8,0v17.3l64.8,0c4.8,0,8.7-3.9,8.7-8.7C242.8,391.9,238.9,388.1,234.1,388.1z"/>
<path class="st1" d="M212.7,354.3l-43.4,0v17.3l43.4,0c4.8,0,8.7-3.9,8.7-8.7C221.4,358.2,217.5,354.3,212.7,354.3z"/>
<path class="st1" d="M212.7,320.5l-43.4,0v17.3l43.4,0c4.8,0,8.7-3.9,8.7-8.7C221.4,324.4,217.5,320.5,212.7,320.5z"/>
</svg>
